<?xml version="1.0" encoding="utf-8"?>
<!-- Generator: Adobe Illustrator 23.0.5, SVG Export Plug-In . SVG Version: 6.00 Build 0)  -->
<svg width="24" height="24" version="1.1" id="Capa_1" xmlns="http://www.w3.org/2000/svg" xmlns:xlink="http://www.w3.org/1999/xlink" x="0px" y="0px"
	 viewBox="0 0 42 42" style="enable-background:new 0 0 42 42;" xml:space="preserve">
<style type="text/css">
	.st0{fill-rule:evenodd;clip-rule:evenodd;fill:url(#Oval-Copy-5_1_);}
	.st1{fill:#FFFFFF;}
</style>
<title>Icon</title>
<desc>Created with Sketch.</desc>
<g id="Page-1">
	<g id="Catalog" transform="translate(-354.000000, -648.000000)">
		<g id="products" transform="translate(132.000000, 624.000000)">
			<g id="line-1">
				<g id="product-card" transform="translate(0.000000, 12.000000)">
					<g id="Icon" transform="translate(222.000000, 12.000000)">
						<g>
							
								<radialGradient id="Oval-Copy-5_1_" cx="-26.8333" cy="70.8246" r="0.7985" gradientTransform="matrix(42 0 0 -42 1148 2996)" gradientUnits="userSpaceOnUse">
								<stop  offset="0" style="stop-color:#0AD4FA"/>
								<stop  offset="1" style="stop-color:#25BBF1"/>
							</radialGradient>
							<circle id="Oval-Copy-5" class="st0" cx="21" cy="21" r="21"/>
							<path id="Shape-Copy-2" class="st1" d="M30,29.1l-1.1-13.6c0-0.3-0.3-0.5-0.6-0.5h-3v-1.1c0-1.6-1.4-2.9-3-2.9h-2.4
								c-1.7,0-3,1.3-3,2.9V15h-3c-0.3,0-0.6,0.2-0.6,0.5L12,29.1c0,0.5,0.1,1,0.5,1.3s0.8,0.6,1.3,0.6h14.4c0.5,0,1-0.2,1.3-0.6
								C29.9,30.1,30,29.6,30,29.1z M18,14.2c0-1.2,0.8-2.2,1.8-2.2h2.4c1,0,1.8,1,1.8,2.2V15h-6V14.2z"/>
						</g>
					</g>
				</g>
			</g>
		</g>
	</g>
</g>
</svg>
