<?xml version="1.0" encoding="utf-8"?>
<!-- Generator: Adobe Illustrator 23.0.5, SVG Export Plug-In . SVG Version: 6.00 Build 0)  -->
<svg width="24" height="24" version="1.1" id="Capa_1" xmlns="http://www.w3.org/2000/svg" xmlns:xlink="http://www.w3.org/1999/xlink" x="0px" y="0px"
	 viewBox="0 0 50 50" style="enable-background:new 0 0 50 50;" xml:space="preserve">
<style type="text/css">
	.st0{fill-rule:evenodd;clip-rule:evenodd;fill:#FFFFFF;}
	.st1{fill:#0AD4FA;}
</style>
<title>icon-white</title>
<desc>Created with Sketch.</desc>
<g id="Page-1">
	<g id="Catalog" transform="translate(-652.000000, -634.000000)">
		<g id="products" transform="translate(132.000000, 624.000000)">
			<g id="line-1">
				<g id="product-card-hover" transform="translate(300.000000, 0.000000)">
					<g id="icon-white" transform="translate(222.000000, 12.000000)">
						<g>
							<circle id="Oval-Copy-6" class="st0" cx="23" cy="23" r="25"/>
							<path id="Shape-Copy-2" class="st1" d="M33.7,32.7l-1.3-16.2c0-0.4-0.3-0.6-0.7-0.6h-3.6v-1.3c0-1.9-1.6-3.5-3.6-3.5h-2.9
								c-2,0-3.6,1.6-3.6,3.5v1.3h-3.6c-0.4,0-0.7,0.3-0.7,0.6l-1.3,16.2c0,0.6,0.2,1.2,0.6,1.6s1,0.7,1.6,0.7h17.1
								c0.6,0,1.2-0.2,1.6-0.7C33.5,33.8,33.8,33.2,33.7,32.7z M19.4,15c0-1.5,1-2.7,2.1-2.7h2.9c1.2,0,2.1,1.2,2.1,2.7v0.9h-7.1V15
								z"/>
						</g>
					</g>
				</g>
			</g>
		</g>
	</g>
</g>
</svg>
